<?xml version="1.0" standalone="no"?>
<!DOCTYPE svg PUBLIC "-//W3C//DTD SVG 20010904//EN"
 "http://www.w3.org/TR/2001/REC-SVG-20010904/DTD/svg10.dtd">
<svg version="1.0" xmlns="http://www.w3.org/2000/svg"
 width="230.000000pt" height="230.000000pt" viewBox="0 0 230.000000 230.000000"
 preserveAspectRatio="xMidYMid meet">
<metadata>
Created by potrace 1.11, written by Peter Selinger 2001-2013
</metadata>
<g transform="translate(0.000000,230.000000) scale(0.100000,-0.100000)"
fill="#000000" stroke="none">
<path d="M1870 2278 c-113 -40 -241 -153 -355 -312 -27 -38 -54 -66 -64 -66
-10 0 -40 -8 -67 -17 -54 -18 -151 -111 -192 -183 -31 -56 -21 -50 17 9 50 77
138 155 194 170 26 8 50 12 52 9 3 -3 -6 -34 -19 -69 -13 -35 -27 -87 -31
-114 -5 -30 -18 -64 -35 -85 -38 -50 -47 -71 -13 -32 15 18 31 32 34 32 3 0 9
-26 12 -59 9 -102 82 -224 161 -268 16 -9 15 -14 -7 -74 -38 -101 -39 -106
-18 -67 35 63 72 207 78 307 4 66 3 92 -5 87 -11 -7 -28 31 -18 41 3 4 6 -2 6
-12 0 -10 3 -16 6 -12 3 3 0 22 -7 41 -16 44 -2 106 37 174 25 43 26 43 46 25
25 -22 67 -93 84 -141 7 -21 13 -29 14 -19 0 27 -48 118 -83 154 -30 32 -30
32 -12 60 34 51 162 170 207 192 57 27 127 28 161 1 35 -28 61 -100 54 -151
-8 -59 -67 -173 -126 -245 -43 -52 -159 -154 -174 -154 -3 0 -8 10 -10 23 -2
12 -5 -7 -6 -43 -2 -58 -16 -160 -36 -245 -6 -29 -6 -29 7 -6 8 15 29 29 55
36 66 20 124 58 212 140 130 124 219 267 257 415 32 126 2 259 -83 365 -85
107 -202 139 -333 93z"/>
<path d="M1155 1639 c-4 -6 -5 -12 -2 -15 2 -3 7 2 10 11 7 17 1 20 -8 4z"/>
<path d="M1781 1604 c0 -11 3 -14 6 -6 3 7 2 16 -1 19 -3 4 -6 -2 -5 -13z"/>
<path d="M1301 1503 c-10 -26 -10 -27 4 -9 8 11 15 23 15 28 0 15 -7 8 -19
-19z"/>
<path d="M1096 1495 c-9 -26 -7 -32 5 -12 6 10 9 21 6 23 -2 3 -7 -2 -11 -11z"/>
<path d="M1061 1384 c-7 -25 -10 -48 -8 -51 3 -2 10 17 16 43 7 25 10 48 8 51
-3 2 -10 -17 -16 -43z"/>
<path d="M1266 1405 c-3 -9 -6 -22 -5 -28 0 -7 5 -1 10 12 5 13 8 26 5 28 -2
2 -6 -3 -10 -12z"/>
<path d="M1187 1344 c-37 -7 -82 -20 -99 -29 -25 -12 -33 -13 -40 -3 -6 10 -8
8 -8 -4 0 -10 -16 -28 -35 -41 -79 -54 -199 -182 -258 -276 l-33 -52 -89 -3
c-164 -6 -361 -101 -486 -233 -125 -134 -165 -276 -121 -434 45 -160 150 -255
296 -266 182 -15 500 161 594 328 17 31 39 53 62 64 96 46 220 160 308 284 30
42 37 46 85 52 l52 6 -66 1 c-51 2 -79 9 -126 32 -34 17 -66 37 -73 45 -10 12
-21 3 -65 -58 -45 -61 -112 -127 -118 -115 -1 1 -11 27 -21 57 -10 30 -29 72
-43 93 l-26 38 34 48 c19 27 57 74 86 105 56 61 55 62 68 -17 3 -21 8 -36 11
-34 2 3 0 27 -5 54 -9 44 -7 52 12 72 25 27 88 62 112 62 9 0 15 -9 15 -22 1
-37 35 -102 69 -131 52 -44 117 -32 171 30 l25 28 -27 -24 -27 -23 6 89 c5 82
4 95 -20 146 -25 54 -91 117 -123 117 -7 0 -17 6 -21 13 -7 11 -20 11 -76 1z
m95 -35 c86 -23 147 -135 133 -242 -12 -86 -19 -97 -62 -97 -55 1 -73 19 -73
71 0 41 -18 83 -44 101 -20 14 -71 8 -103 -12 -110 -67 -281 -282 -350 -440
-28 -64 -32 -83 -27 -126 5 -39 2 -59 -14 -90 -31 -61 -44 -68 -70 -41 -56 60
-49 271 15 415 68 155 237 353 353 417 51 27 136 52 185 54 11 1 37 -4 57 -10z
m-32 -208 c5 -11 10 -39 9 -63 l-1 -43 -19 40 c-20 43 -25 85 -9 85 5 0 14 -9
20 -19z m-30 -363 c19 -10 40 -18 47 -18 20 0 17 -7 -31 -68 -62 -81 -173
-185 -225 -211 l-44 -23 7 24 c4 12 9 58 11 102 4 76 5 79 47 125 24 25 56 63
72 84 29 37 29 37 55 20 14 -9 42 -25 61 -35z m-602 -89 c-13 -99 8 -194 54
-245 l19 -22 -76 -51 c-82 -55 -208 -101 -276 -101 -61 0 -113 31 -133 80 -23
57 -20 98 10 158 29 58 83 110 170 162 64 38 174 79 215 80 l26 0 -9 -61z
m159 -71 c-3 -7 -5 -2 -5 12 0 14 2 19 5 13 2 -7 2 -19 0 -25z"/>
<path d="M1708 1107 c-50 -132 -51 -135 -32 -102 20 35 76 186 71 191 -2 2
-19 -38 -39 -89z"/>
<path d="M1506 1093 c-6 -14 -5 -15 5 -6 7 7 10 15 7 18 -3 3 -9 -2 -12 -12z"/>
<path d="M1480 1050 c-6 -11 -8 -20 -6 -20 3 0 10 9 16 20 6 11 8 20 6 20 -3
0 -10 -9 -16 -20z"/>
<path d="M1582 863 c-24 -30 -65 -67 -90 -83 -26 -16 -42 -30 -35 -30 27 0
187 151 172 164 -2 2 -24 -21 -47 -51z"/>
<path d="M1100 870 c6 -11 13 -20 16 -20 2 0 0 9 -6 20 -6 11 -13 20 -16 20
-2 0 0 -9 6 -20z"/>
</g>
</svg>
